<?xml version="1.0" encoding="iso-8859-1"?>
<!-- Uploaded to: SVG Repo, www.svgrepo.com, Generator: SVG Repo Mixer Tools -->
<svg version="1.1" id="Layer_1" xmlns="http://www.w3.org/2000/svg" xmlns:xlink="http://www.w3.org/1999/xlink" 
	 viewBox="0 0 512 512" xml:space="preserve">
<path style="fill:#666666;" d="M272.696,216.562h-33.391v-16.166c0-38.052,30.957-69.009,69.009-69.009
	c19.64,0,35.617-15.978,35.617-35.617V79.236h33.391V95.77c0,38.052-30.957,69.009-69.009,69.009
	c-19.64,0-35.617,15.978-35.617,35.617V216.562z"/>
<path style="fill:#EBECEC;" d="M395.551,432.764c-48.436,0-91.379-29.955-108.567-74.261h-61.968
	c-17.189,44.306-60.131,74.261-108.567,74.261C52.24,432.764,0,380.525,0,316.315s52.24-116.449,116.449-116.449h279.102
	C459.76,199.866,512,252.104,512,316.315S459.76,432.764,395.551,432.764z"/>
<path style="fill:#CACDCD;" d="M395.551,432.764c-48.436,0-91.379-29.955-108.567-74.261H256c0-89.702,0-108.624,0-158.636h139.551
	C459.76,199.866,512,252.104,512,316.315S459.76,432.764,395.551,432.764z"/>
<polygon style="fill:#FBAC50;" points="163.617,299.619 135.791,299.619 135.791,271.793 102.4,271.793 102.4,299.619 
	74.574,299.619 74.574,333.01 102.4,333.01 102.4,360.836 135.791,360.836 135.791,333.01 163.617,333.01 "/>
<path style="fill:#10C7C5;" d="M395.234,355.565c-10.082,0-20.164-3.838-27.841-11.513c-7.437-7.436-11.532-17.323-11.532-27.842
	c0-10.518,4.096-20.405,11.532-27.842c15.352-15.351,40.329-15.35,55.681,0c7.437,7.436,11.532,17.323,11.532,27.842
	c0,10.518-4.096,20.405-11.532,27.842C415.399,351.727,405.316,355.565,395.234,355.565z"/>
<rect x="224.835" y="258.438" style="fill:#666666;" width="62.33" height="33.391"/>
<rect x="256" y="258.438" style="fill:#4D4D4D;" width="31.165" height="33.391"/>
</svg>